<svg width="36" height="36" viewBox="0 0 36 36" fill="none" xmlns="http://www.w3.org/2000/svg">
<path d="M27.3088 9.68133C27.0579 8.83082 26.5373 8.08493 25.8255 7.55619C25.1137 7.02744 24.2492 6.74451 23.3625 6.75008C22.3348 6.751 21.3447 7.13629 20.5867 7.83021C19.8287 8.52413 19.3577 9.4765 19.2662 10.5001H16.735C16.6423 9.47542 16.1697 8.52248 15.4101 7.82857C14.6505 7.13466 13.6588 6.74995 12.63 6.75008C11.7445 6.74573 10.8815 7.02926 10.1711 7.55794C9.46071 8.08663 8.94135 8.83184 8.69125 9.68133L5.5525 20.1413C5.51812 20.2578 5.50044 20.3786 5.5 20.5001V21.7501C5.50199 23.4073 6.16127 24.996 7.33322 26.1677C8.50516 27.3395 10.094 27.9984 11.7512 28.0001C12.9659 27.998 14.1536 27.6423 15.1693 26.9763C16.1851 26.3104 16.985 25.3631 17.4712 24.2501H18.5288C19.015 25.3631 19.8149 26.3104 20.8307 26.9763C21.8464 27.6423 23.0341 27.998 24.2488 28.0001C25.9062 27.9984 27.4952 27.3393 28.6672 26.1673C29.8392 24.9953 30.4983 23.4063 30.5 21.7488V20.5001C30.5 20.3776 30.4813 20.2576 30.4475 20.1413L27.3088 9.68133ZM11.7512 25.5001C10.757 25.4988 9.80379 25.1033 9.10062 24.4003C8.39744 23.6974 8.00165 22.7444 8 21.7501C8 21.6551 8.02125 21.5663 8.0275 21.4726C8.09589 20.5311 8.51743 19.6502 9.2077 19.0063C9.89798 18.3623 10.806 18.003 11.75 18.0001C12.7446 18.0001 13.6984 18.3952 14.4017 19.0984C15.1049 19.8017 15.5 20.7555 15.5 21.7501V21.7613C15.4957 22.7533 15.0991 23.7033 14.3967 24.4038C13.6943 25.1043 12.7432 25.4984 11.7512 25.5001ZM24.2488 25.5001C23.2568 25.4984 22.3057 25.1043 21.6033 24.4038C20.9009 23.7033 20.5043 22.7533 20.5 21.7613V21.7501C20.4999 21.2576 20.5968 20.77 20.7852 20.315C20.9736 19.86 21.2497 19.4465 21.5979 19.0982C22.3011 18.3949 23.2548 17.9996 24.2494 17.9995C25.2439 17.9993 26.1978 18.3942 26.9012 19.0974C27.6046 19.8005 27.9998 20.7543 28 21.7488C27.9987 22.7433 27.603 23.6967 26.8998 24.3999C26.1966 25.1031 25.2432 25.4988 24.2488 25.5001Z" fill="white"/>
</svg>
